P1
64 32
1111111111111111111111111111111111101110111011101110111011101110100000
0000000000000000000000000100000000000000000000000000000001100001110000
0000000100000000000110000111000000000001000000000001100010000111000110
0101001100000110001000011100011001010011000001100001100100101001011001
1100000110000110010010100101100111000000100000010100101001010101000000
0100000001010010100101010100000001100011100100100111010100110000011000
1110010010011101010011000001100000000000000000000000000000011000000000
0000000000000000000001111111111111111111111111111111111011101110111011
1011101110111010100000000000000000000000000000010000000000000000000000
0000000001100000000000000000000000000000011000000000000000000000000000
0001100111111111111000000000000000011001111111111110000000000000000110
0111111111111000000000000000011001111111111110000000000000000010000000
0000011000000000000000010000000000000110000000000000000110000000000001
1000000000000000011000000000000110000000000000000110000000000001100000
0000000000011000000000000110000000000000000110000000000001100000000000
0000011000000000000110000000000000000010000000000001111111110000000001
0000000000000111111111000000000110000000000001111111110000000001100000
0000000111111111000000000110000000000000000000111110000001100000000000
0000000011111000000110000000000000000000111110000001100000000000000000
0011111000000010000000000000000000000000000001000000000000000000000000
0000000110000000000000000000000000000001100000000000000000000000000000
0110000000000000000000000000000001100000000000000000000000000000011000
0000000000000000000000000001100000000000000000000000000000001000000000
0000000000000001100001000000000000000000000000011000011000000000000000
0000000001100001100000000000000000000000011000011000000000000000000000
0000000001100000000000000000000000000000011000000000000000000000000000
0001100000000000000000000000000000001000000000000000000000000000000100
0000000000000000000000000000011000000000000000000000000000000110000000
0000000000000000000000011111111111111111111111111111111111011101110111
011101110111011101