P1
64 32
1111111111111111111111111111111111101110111011101110111011101110100000
0000000000000000000000000100000000000000000000000000000001100000110011
0011100100100000000110000011001100111001001000000001100000101010101000
1110101000000110000010101010100011101010000001100000110011001110101011
0000000110000011001100111010101100000000100000101010101000111011000000
0100000010101010100011101100000001100000110010101110101010100000011000
0011001010111010101010000001100000000000000000000000000000011000000000
0000000000000000000001111111111110000000000111111111111011101110111011
1011101110111010100000000000000000000000000000010000000000000000000000
0000000001100000000000000000000000000000011000000000000000000000000000
0001100111110001100110011111101110011000000000000000000000000000000110
0111110001100110011111101110011000111110001100110011111101110010000000
0001100110000000000000010000111110001100010010110101110111110001110110
0110000011100000011000000000001100110000000000000111110001110110011000
0011100000011011100011101000110000000100000110000000000000000000000000
0000011010100010001100110000011100000010011111000011110000001110000001
0000000000000000000000000000000110011111000011110000001110000001100011
1100000111100000011100000110000000000000000000000000000001100011011000
0100000000010100000110000000000000000000000000000001100000000000000000
0000000000000010000000000000000000000000000001000000000000000000000000
0000000110000000000000000000000000000001100000000000000000000000000000
0110000000000000000000000000000001100000000000000000000000000000011000
0000000000000000000000000001100000000000000000000000000000001000000000
0000000000000000000001000000000000000000000000000000011000000000000000
0000000000000001100000000000000000000000000000011000001111110000000000
0000000001100000000001111110000000000000011000001111110000000000000000
0001100000000001111110000000000000001000000000000000000000000000000100
0000000000000000000000000000011000000000000000000000000000000110000000
0000000000000000000000011111111111111111111111111111111111011101110111
011101110111011101