P1
64 32
1111111111111111111111111111111111101110111011101110111011101110100000
0000000000000000000000000100000000000000000000000000000001100000011000
1100100100111000000110000001100011001001001110000001100000100101001011
0101000000000110000010010100101101010000000001100000111001001010110101
1000000110000011100100101011010110000000100000100001001010010100100000
0100000010000100101001010010000001100000100000110010010011100000011000
0010000011001001001110000001100000000000000000000000000000011000000000
0000000000000000000001111111111111111111111111111111111011101110111011
1011101110111010100000000000000000000000000000010000000000000000000000
0000000001100000000000000000000000000000011000000000000000000000000000
0001100000000000000000000000000000011000000000000000000000000000000110
0110000000000000000000000000011001100000000000000000000000000010011000
0000000000000000000000010001100000000000000000000000000110011000000000
0000000000000000011001100000000000000000000000000110011000000000000000
0000000000011001100000000000000000000000000110011000000000000000000000
0000011001100000000000000000000000000010011000000000000000000000000001
0001100000000000000000000000000110000000000000000000000000000001100000
0000000000000000000000000110000000000000000000000000000001100000000000
0000000000000000000110000000000000000000000000000001100000000000000000
0000000000000010000000000000000000000000000001000000000000000000000000
0000000110000000110000000000000000011001100000001100000000000000000110
0110000000110000000000000000011001100000001100000000000000000110011000
0000000100000000000000011001100000000001000000000000000110001000000000
0000000000000000011001000000000000000000000000000110011000000000000000
0000000000011001100000000000000000000000000110011000000000000000000000
0000011001100000000000000000000000000110011000000000000000000000000000
0001100000000000000000000000000000001000000000000000000000000000000100
0000000000000000000000000000011000000000000000000000000000000110000000
0000000000000000000000011111111111111111111111111111111111011101110111
011101110111011101