P1
64 32
1111111111111111111111111111111111101110111011101110111011101110100000
0000000000000000000000000100000000000000000000000000000001100011101110
1110110011100110000110001110111011101100111001100001100001001000010010
1001001000000110000100100001001010010010000001100001001110010011000100
0100000110000100111001001100010001000000100001001000010010100100001000
0100000100100001001010010000100001100001001110010010101110110000011000
0100111001001010111011000001100000000000000000000000000000011000000000
0000000000000000000001111111111111111111111111111111111011101110111011
1011101110111010100000000000000000000000000000010000000000000000000000
0000000001100000000000000110000000000000011000000000000000000000000000
0001100000000000000110000000000000011000000000000000000000000000000110
0000000000011110000000000000011000000000000001100000000000000010000000
0000011110000000000000010000000000000001100000000000000110000000000001
1000000000000000011000000000000111100000000000000110000000000001100000
0000000000011000000000000111100000000000000110000000000000000000000000
0000011000000000000110000000000000000010000000000000000000000000000001
0000000000000110000000000000000110000000000000000000000000000001100000
0000000000000000000000000110000000000000000000000000000001100000000000
0000000000000000000110000001100000011000000000000001100000011000000110
0000000000000010000001100000011000000000000001000000011000000110000000
0000000110000001100001111110000000000001100000011000011111100000000000
0110000001100001111110000000000001100000011000011111100000000000011000
0001111110000110000000000001100000011111100001100000000000001000000111
1110000110000000000001000000011111100001100000000000011000000110011110
0111111000000001100000011001111001111110000000011000000110011110011111
1000000001100000011001111001111110000000011000000000000000000000000000
0001100000000000000000000000000000001000000111111111111111111000000100
0000011111111111111111100000011000000000000000000000000000000110000000
0000000000000000000000011111111111111111111111111111111111011101110111
011101110111011101